<svg height="512" viewBox="0 0 128 128" width="512" xmlns="http://www.w3.org/2000/svg"><g id="Circle_Grid" data-name="Circle Grid"><circle cx="64" cy="64" fill="#f6c863" r="64"/></g><g id="icon"><path d="m62.786 82.568h19.132v7.388h-19.132z" fill="#575b6d"/><rect fill="#62667c" height="47.364" rx="2" width="69.296" x="37.704" y="36.06"/><path d="m53.803 27.427h37.098v61.83h-37.098z" fill="#69b0ee" transform="matrix(0 1 -1 0 130.694 -14.01)"/><rect fill="#62667c" height="3.033" rx=".562" width="34.143" x="55.281" y="88.907"/><circle cx="72.352" cy="80.157" fill="#dbd8dd" r="1.108"/><rect fill="#575b6d" height="45.381" rx="2" width="26.408" x="21" y="46.559"/><path d="m23.59 49.602h21.228v5.221h-21.228z" fill="#828a9e"/><path d="m23.59 57.768h21.228v5.221h-21.228z" fill="#828a9e"/><path d="m34.2 75.332a2.628 2.628 0 0 1 -1.282-4.92.3.3 0 1 1 .29.52 2.033 2.033 0 1 0 1.989 0 .3.3 0 1 1 .29-.52 2.628 2.628 0 0 1 -1.288 4.92z" fill="#dbd8dd"/><path d="m34.206 73.008a.338.338 0 0 1 -.338-.338v-3.335a.338.338 0 0 1 .676 0v3.335a.338.338 0 0 1 -.338.338z" fill="#dbd8dd"/><g fill="#414451"><path d="m40.317 66.255h3.85v1.575h-3.85z"/><path d="m24.241 66.255h3.85v1.575h-3.85z"/><path d="m24.241 78.038h19.682v.992h-19.682z"/><path d="m24.241 81.062h19.682v.992h-19.682z"/><path d="m24.241 84.085h19.682v.992h-19.682z"/><path d="m24.241 87.108h19.682v.992h-19.682z"/></g><path d="m56.526 76.891h-2.277l21.25-37.098h2.277z" fill="#eeefee" opacity=".5"/><path d="m69.205 76.891h-7.841l21.25-37.098h7.841z" fill="#eeefee" opacity=".5"/></g></svg>